<svg width="300" height="400" viewBox="0 0 300 400" xmlns="http://www.w3.org/2000/svg">
  <!-- Background -->
  <rect width="300" height="400" fill="#2b3035" rx="10" ry="10"/>
  
  <!-- ATM Panel -->
  <rect x="50" y="50" width="200" height="300" fill="#495057" rx="5" ry="5"/>
  
  <!-- Screen -->
  <rect x="75" y="75" width="150" height="100" fill="#212529" rx="3" ry="3"/>
  <rect x="85" y="85" width="130" height="80" fill="#343a40" rx="2" ry="2"/>
  
  <!-- Card Slot (Normal) -->
  <g>
    <rect x="100" y="200" width="100" height="30" fill="#343a40" rx="3" ry="3"/>
    <rect x="105" y="210" width="90" height="10" fill="#212529" rx="1" ry="1"/>
    
    <!-- Card Slot Label -->
    <text x="150" y="195" font-family="Arial" font-size="10" fill="#ffffff" text-anchor="middle">INSERT CARD</text>
    
    <!-- Indicators -->
    <text x="150" y="250" font-family="Arial" font-size="14" fill="#28a745" text-anchor="middle">✓ Flush with surface</text>
    <text x="150" y="270" font-family="Arial" font-size="14" fill="#28a745" text-anchor="middle">✓ Consistent color</text>
  </g>
  
  <!-- Keypad -->
  <g transform="translate(150, 310)">
    <!-- Background -->
    <rect x="-60" y="-30" width="120" height="60" fill="#343a40" rx="3" ry="3"/>
    
    <!-- Keys -->
    <g fill="#212529">
      <circle cx="-40" cy="-15" r="8"/>
      <circle cx="-20" cy="-15" r="8"/>
      <circle cx="0" cy="-15" r="8"/>
      <circle cx="20" cy="-15" r="8"/>
      <circle cx="40" cy="-15" r="8"/>
      
      <circle cx="-40" cy="15" r="8"/>
      <circle cx="-20" cy="15" r="8"/>
      <circle cx="0" cy="15" r="8"/>
      <circle cx="20" cy="15" r="8"/>
      <circle cx="40" cy="15" r="8"/>
    </g>
    
    <!-- Keypad Indicators -->
    <text x="0" y="50" font-family="Arial" font-size="14" fill="#28a745" text-anchor="middle">✓ Solid and firmly attached</text>
  </g>
  
  <!-- Title -->
  <text x="150" y="40" font-family="Arial" font-size="18" fill="#ffffff" text-anchor="middle">Normal Card Reader</text>
</svg>
